<?xml version="1.0" encoding="utf-8"?>
<!-- Generator: Adobe Illustrator 19.2.1, SVG Export Plug-In . SVG Version: 6.00 Build 0)  -->
<svg version="1.1" id="Artwork" xmlns="http://www.w3.org/2000/svg" xmlns:xlink="http://www.w3.org/1999/xlink" x="0px" y="0px"
	 viewBox="0 0 289.1 147.4" style="enable-background:new 0 0 289.1 147.4;" xml:space="preserve">
<style type="text/css">
	.st0{fill:#FFFFFF;}
	.st1{fill:#808285;}
</style>
<g id="Layer_2">
</g>
<g>
	<g>
		<path id="XMLID_101_" class="st0" d="M78.1,79.7c0,11.1-10,14.4-19.2,14.4H35V63.8h23.9C69.4,63.8,78.1,68,78.1,79.7 M71.8,33.7
			c0,10.3-7.5,13.5-16.4,13.5H35V19.9h19.8C63.8,19.9,71.8,23.3,71.8,33.7 M91.9,32.5c0-9.4-4.6-18.4-12.6-23.7
			c-7.4-4.8-16.4-6-25.2-6H34.9H22.5v109.1H35h23c10.4,0,20.6-0.9,29-7.4c7.8-6,11.1-14.8,11.1-24.4c0-10.1-7.9-21.1-18.6-24.6
			C88.8,51.4,91.9,41.4,91.9,32.5"/>
		<rect id="XMLID_61_" x="2.8" y="2.8" class="st1" width="19.7" height="109.1"/>
	</g>
	<g>
		<g id="XMLID_91_">
			<rect id="XMLID_106_" x="117.9" y="2.8" class="st0" width="6.1" height="29.6"/>
			<path id="XMLID_104_" class="st0" d="M151.8,10.8c-3.2,0-5.2,1.4-6.7,3.6c-1.2-2.4-3.3-3.6-6.3-3.6c-2.5,0-4.3,0.9-5.9,2.9h-0.1
				v-2.4h-5.5v21.1h5.8V21.6c0-4,1.3-6.2,3.9-6.2c2.2,0,3.3,1.6,3.3,4.3v12.8h5.8V21.6c0-4,1.4-6.2,3.9-6.2c2,0,3.3,1.5,3.3,4.7
				v12.4h5.8v-13C159.2,13.7,156.3,10.8,151.8,10.8"/>
			<path id="XMLID_155_" class="st0" d="M172.3,15.2c2.8,0,4.6,2.6,4.6,6.7s-1.8,6.7-4.6,6.7c-2.6,0-4.4-2.5-4.4-6.7
				C167.9,17.7,169.7,15.2,172.3,15.2 M174.2,10.8c-2.5,0-4.8,1.2-6.1,3.3H168v-2.8h-5.7v28.9h5.8V29.9h0.1c1.3,2,3.6,3.1,6,3.1
				c5.3,0,8.7-4.4,8.7-11.1S179.5,10.8,174.2,10.8"/>
			<path id="XMLID_152_" class="st0" d="M195.6,14.8c2.3,0,4.2,1.5,4.6,4.7h-9.2C191.4,16.2,193.2,14.8,195.6,14.8 M195.6,29
				c-2.5,0-4.6-1.5-4.8-5.9H206c0-2.3-0.2-4-0.7-5.4c-1.3-4.3-4.9-7-9.8-7c-6.6,0-10.5,4.8-10.5,11.1c0,6.7,3.9,11.4,10.5,11.4
				c5.6,0,9.3-3.2,10.1-7.1h-6C199.5,27.8,197.9,29,195.6,29"/>
			<path id="XMLID_98_" class="st0" d="M219.6,11c-2.5,0-4.4,1-5.8,3.3h-0.1v-3h-5.4v21.1h5.8v-10c0-4.2,1.9-6.4,5.5-6.4
				c0.6,0,1.2,0.1,1.8,0.2v-5C221,11.1,220.2,11,219.6,11"/>
			<path id="XMLID_147_" class="st0" d="M230.1,11.3h-5.8v21.1h5.8V11.3z M230.1,2.8h-5.8v5h5.8V2.8z"/>
			<path id="XMLID_7_" class="st0" d="M243.3,90.8h-5.8v21.1h5.8V90.8z M243.3,82.3h-5.8v5h5.8V82.3z"/>
			<path id="XMLID_144_" class="st0" d="M246.3,23.6c0,1.9-0.2,3-1.2,4c-0.8,0.8-2.1,1.2-3.3,1.2c-2,0-3.1-1.1-3.1-2.7
				c0-1.7,1-2.5,3.4-2.9c1.2-0.2,3-0.4,4.2-0.5V23.6z M242.8,10.7c-6,0-9,3.2-9.2,7.3h5.7c0.1-2,1.3-3.2,3.5-3.2
				c2,0,3.5,1.1,3.5,3.7v0.7c-1.3,0.1-3.7,0.3-5.3,0.6c-6.1,1-8.2,3.3-8.2,6.7c0,3.7,2.7,6.4,7.2,6.4c2.9,0,5.3-1.1,6.9-3.3h0.1
				c0,1,0.1,2,0.3,2.8h5.2c-0.4-1.4-0.6-3.1-0.6-5.8V19C251.9,13.5,248.8,10.7,242.8,10.7"/>
			<path id="XMLID_575_" class="st0" d="M181.1,103c0,1.9-0.2,3-1.2,4c-0.8,0.8-2.1,1.2-3.3,1.2c-2,0-3.1-1.1-3.1-2.7
				c0-1.7,1-2.5,3.4-2.9c1.2-0.2,3-0.4,4.2-0.5V103z M177.7,90.1c-6,0-9,3.2-9.2,7.3h5.7c0.1-2,1.3-3.2,3.5-3.2c2,0,3.5,1.1,3.5,3.7
				v0.7c-1.3,0.1-3.7,0.3-5.3,0.6c-6.1,1-8.2,3.3-8.2,6.7c0,3.7,2.7,6.4,7.2,6.4c2.9,0,5.3-1.1,6.9-3.3h0.1c0,1,0.1,2,0.3,2.8h5.2
				c-0.4-1.4-0.6-3.1-0.6-5.8v-7.7C186.8,92.9,183.7,90.1,177.7,90.1"/>
			<rect id="XMLID_92_" x="255.3" y="2.8" class="st0" width="5.8" height="29.6"/>
		</g>
		<g id="XMLID_4_">
			<path id="XMLID_11_" class="st0" d="M124.3,104.7l-2.3,7.2h-6.4l10.3-29.6h8.2l10.3,29.6H138l-2.3-7.2H124.3z M133.4,97.5
				c-1.2-3.8-2.4-7.7-3.4-11.6h-0.1c-1,3.8-2.1,7.7-3.3,11.6l-0.6,2h8L133.4,97.5z"/>
			<path id="XMLID_9_" class="st0" d="M165.8,98.9v13H160V99.5c0-3.2-1.4-4.7-3.7-4.7c-2.4,0-4.2,1.9-4.2,5.7v11.3h-5.8V90.8h5.5
				v2.7h0.1c1.4-1.9,3.5-3.2,6.2-3.2C162.8,90.3,165.8,93.2,165.8,98.9z"/>
			<path id="XMLID_50_" class="st0" d="M189.9,111.9V82.3h5.8v29.6H189.9z"/>
			<path id="XMLID_52_" class="st0" d="M212,112.1c-2.1,6-4.8,7.8-10.1,7.8c-1,0-2.2-0.1-3-0.3v-4.7c0.6,0.2,1.4,0.3,2.2,0.3
				c2.3,0,3.9-1.3,3.9-3.4c0-0.8-0.2-1.5-1-3.8l-6-17.2h6.2l2.2,7.1c0.9,2.9,1.7,5.9,2.3,8.9h0.1c0.7-3,1.5-6,2.5-8.9l2.3-7.1h6
				L212,112.1z"/>
			<path id="XMLID_54_" class="st0" d="M234.8,107.3v4.5c-0.8,0.2-2.1,0.4-3.1,0.4c-4.9,0-7-2-7-6.9V95.1h-3.4v-4.3h3.4v-5.5h5.8
				v5.5h4v4.3h-4v9.2c0,2.3,0.7,3.2,2.7,3.2C233.8,107.6,234.4,107.5,234.8,107.3z"/>
			<path id="XMLID_59_" class="st0" d="M266.1,98.6h-6.1c-0.2-2.5-1.7-4-4-4c-2.8,0-4.5,2.6-4.5,6.7c0,4.2,1.7,6.7,4.5,6.7
				c2.2,0,3.7-1.7,3.9-4.5h6.1c-0.5,5.4-4.3,9-10,9c-6.5,0-10.7-4.4-10.7-11.2c0-6.8,4.2-11.2,10.7-11.2
				C261.9,90.1,265.7,93.7,266.1,98.6z"/>
		</g>
	</g>
	<g id="XMLID_237_">
		<g id="XMLID_243_">
			<path id="XMLID_244_" class="st0" d="M126.8,143.9l-1.4-5c-0.4-1.7-0.9-3.3-1.3-5h0c-0.4,1.7-0.8,3.3-1.3,5l-1.4,5h-2.9
				l-3.1-11.5h2l1.2,4.8c0.4,1.7,0.9,3.5,1.3,5.2h0c0.4-1.7,0.8-3.4,1.3-5.1l1.3-4.9h2.9l1.3,4.9c0.4,1.7,0.9,3.4,1.3,5.1h0
				c0.4-1.7,0.8-3.5,1.3-5.2l1.2-4.8h2l-3.1,11.5H126.8z"/>
			<path id="XMLID_246_" class="st0" d="M134.4,130v-2.2h2v2.2H134.4z M134.4,143.9v-11.5h2v11.5H134.4z"/>
			<path id="XMLID_249_" class="st0" d="M144.7,142.2v1.6c-0.3,0.1-0.9,0.1-1.3,0.1c-2.2,0-3.1-0.9-3.1-3.3V134h-2v-1.6h2v-2.8h2
				v2.8h2.3v1.6h-2.3v6.5c0,1.3,0.4,1.9,1.6,1.9C144.1,142.3,144.5,142.3,144.7,142.2z"/>
			<path id="XMLID_251_" class="st0" d="M148.9,133.8c0.8-1.2,2.1-1.7,3.4-1.7c2.6,0,4.2,1.6,4.2,4.7v7h-2V137c0-2.4-1-3.3-2.7-3.3
				c-1.6,0-3,1.2-3,3.5v6.6h-2v-16.2h2L148.9,133.8L148.9,133.8z"/>
		</g>
		<g id="XMLID_1_">
			<path id="XMLID_2_" class="st0" d="M175.5,143.9H173l-5.2-8.1h0l-2,8.1h-2.1l4-16.2h2.1l-1.8,7.1h0l8-7.1h2.9l-9,7.8L175.5,143.9
				z"/>
			<path id="XMLID_233_" class="st0" d="M185.8,127.7c3.5,0,5.3,1.7,5.3,4.4c0,2.4-1.9,5.4-6.2,5.4h-4.1l-1.6,6.4h-2.1l4-16.2H185.8
				z M181.3,135.7h3.7c2.9,0,4-1.9,4-3.4c0-1.7-1-2.7-3.3-2.7h-2.9L181.3,135.7z"/>
			<path id="XMLID_236_" class="st0" d="M205.7,143.9l2-8.2c0.5-2,1-4.1,1.6-6.2h0c-1.2,2.1-2.5,4.1-3.7,6.2l-5,8.2h-2.4l-1-8.2
				c-0.2-2.1-0.5-4.1-0.6-6.2h0l-1.5,6.2l-2,8.2h-2l4-16.2h3.2l0.9,8c0.2,2,0.4,4.2,0.6,6.2h0c1.2-2,2.4-4.2,3.7-6.2l4.9-8h3.5
				l-4,16.2H205.7z"/>
			<path id="XMLID_239_" class="st0" d="M227.2,132.2c0,0.3,0,0.5,0,0.7H225c0-0.1,0-0.3,0-0.4c0-2.1-1.3-3.2-3.5-3.2
				c-4.5,0-6.7,4.8-6.7,8.5c0,2.8,1.3,4.6,3.8,4.6c2.2,0,4.6-1.4,5.5-4.9h-4.5l0.5-1.8h6.5l-2,8.2h-1.9l0.5-1.9h0
				c-1.1,1.3-3,2.2-5,2.2c-3.4,0-5.4-2.6-5.4-6.4c0-4.7,3.1-10.4,9.1-10.4C225.2,127.4,227.2,129.3,227.2,132.2z"/>
		</g>
	</g>
	<path id="XMLID_495_" class="st0" d="M151.1,72.7c2.7,0,4.8-1.3,6.2-3.2h0.1v2.7h5.5V51.1H157v11.3c0,3.8-1.7,5.7-4.2,5.7
		c-2.3,0-3.7-1.5-3.7-4.7V51.1h-5.8v13C143.3,69.8,146.4,72.7,151.1,72.7"/>
	<path id="XMLID_494_" class="st0" d="M174.7,50.4c-5.2,0-8.7,2.7-8.7,6.5c0,4.9,3.8,5.7,7.3,6.7c3.3,0.9,4.9,1.2,4.9,3.1
		c0,1.2-1,2-3.1,2c-2.4,0-3.7-1.2-3.7-3.3h-5.9c0,5.1,3.6,7.5,9.5,7.5c5.7,0,9.3-2.7,9.3-6.6c0-5.2-4.2-6.1-8-7.1
		c-3.2-0.8-4.5-1.2-4.5-2.7c0-1.2,1-2,2.9-2c2.1,0,3.3,0.9,3.3,3.1h5.6C183.6,52.8,180.2,50.4,174.7,50.4"/>
	<path id="XMLID_491_" class="st0" d="M193.2,51.1h-5.8v21.1h5.8V51.1z M193.2,42.6h-5.8v5h5.8V42.6z"/>
	<path id="XMLID_490_" class="st0" d="M208.3,50.6c-2.7,0-4.8,1.3-6.2,3.2H202v-2.7h-5.5v21.1h5.8V60.9c0-3.8,1.7-5.7,4.2-5.7
		c2.3,0,3.7,1.5,3.7,4.7v12.4h5.8v-13C216.1,53.5,213,50.6,208.3,50.6"/>
	<path id="XMLID_487_" class="st0" d="M229,54.5c2.3,0,4.2,1.5,4.6,4.7h-9.2C224.8,56,226.6,54.5,229,54.5 M229,68.8
		c-2.5,0-4.6-1.5-4.8-5.9h15.2c0-2.3-0.2-4-0.7-5.4c-1.3-4.3-4.9-7-9.8-7c-6.6,0-10.5,4.8-10.5,11.1c0,6.7,3.9,11.4,10.5,11.4
		c5.6,0,9.3-3.2,10.1-7.1h-6C232.9,67.5,231.3,68.8,229,68.8"/>
	<path id="XMLID_486_" class="st0" d="M250.5,50.4c-5.2,0-8.7,2.7-8.7,6.5c0,4.9,3.8,5.7,7.3,6.7c3.3,0.9,4.9,1.2,4.9,3.1
		c0,1.2-1,2-3.1,2c-2.4,0-3.7-1.2-3.7-3.3h-5.9c0,5.1,3.6,7.5,9.5,7.5c5.7,0,9.3-2.7,9.3-6.6c0-5.2-4.2-6.1-8-7.1
		c-3.2-0.8-4.5-1.2-4.5-2.7c0-1.2,1-2,2.9-2c2.1,0,3.3,0.9,3.3,3.1h5.6C259.4,52.8,256,50.4,250.5,50.4"/>
	<path id="XMLID_485_" class="st0" d="M271.1,50.4c-5.2,0-8.7,2.7-8.7,6.5c0,4.9,3.8,5.7,7.3,6.7c3.3,0.9,4.9,1.2,4.9,3.1
		c0,1.2-1,2-3.1,2c-2.4,0-3.7-1.2-3.7-3.3h-5.9c0,5.1,3.6,7.5,9.5,7.5c5.7,0,9.3-2.7,9.3-6.6c0-5.2-4.2-6.1-8-7.1
		c-3.2-0.8-4.5-1.2-4.5-2.7c0-1.2,1-2,2.9-2c2.1,0,3.3,0.9,3.3,3.1h5.6C279.9,52.8,276.6,50.4,271.1,50.4"/>
	<path id="XMLID_517_" class="st0" d="M276.7,90.1c-5.2,0-8.7,2.7-8.7,6.5c0,4.9,3.8,5.7,7.3,6.7c3.3,0.9,4.9,1.2,4.9,3.1
		c0,1.2-1,2-3.1,2c-2.4,0-3.7-1.2-3.7-3.3h-5.9c0,5.1,3.6,7.5,9.5,7.5c5.7,0,9.3-2.7,9.3-6.6c0-5.2-4.2-6.1-8-7.1
		c-3.2-0.8-4.5-1.2-4.5-2.7c0-1.2,1-2,2.9-2c2.1,0,3.3,0.9,3.3,3.1h5.6C285.6,92.6,282.3,90.1,276.7,90.1"/>
	<path id="XMLID_481_" class="st0" d="M135.4,63.4c0,3-2.7,3.9-5.2,3.9H124v-8.2h6.2C133,59.1,135.4,60.3,135.4,63.4 M134,51
		c0,2.8-2.1,3.7-4.5,3.7H124v-7.4h5.4C131.8,47.2,134,48.1,134,51 M139.5,50.6c0-2.5-1.3-5-3.4-6.4c-2-1.3-4.5-1.6-6.9-1.6h-11.3
		v29.6l12.4,0c2.8,0,5.6-0.2,7.9-2c2.1-1.6,3-4,3-6.6c0-2.8-2.1-5.7-5.1-6.7C138.6,55.8,139.5,53,139.5,50.6"/>
</g>
</svg>
